<mxfile host="app.diagrams.net" modified="2024-06-15T00:41:13.979Z" agent="Mozilla/5.0 (Macintosh; Intel Mac OS X 10_15_7) AppleWebKit/537.36 (KHTML, like Gecko) Chrome/124.0.0.0 Safari/537.36 OPR/110.0.0.0" etag="J6D4JgasQu-CfrMqyjjO" version="24.5.4" type="github">
  <diagram name="Page-1" id="03018318-947c-dd8e-b7a3-06fadd420f32">
    <mxGraphModel dx="1192" dy="659" grid="1" gridSize="10" guides="1" tooltips="1" connect="1" arrows="1" fold="1" page="1" pageScale="1" pageWidth="1100" pageHeight="850" background="#ffffff" math="0" shadow="0">
      <root>
        <mxCell id="0" />
        <mxCell id="1" parent="0" />
        <mxCell id="677b7b8949515195-1" value="" style="whiteSpace=wrap;html=1;rounded=0;shadow=0;labelBackgroundColor=none;strokeColor=#000000;strokeWidth=1;fillColor=none;fontFamily=Verdana;fontSize=12;fontColor=#000000;align=center;comic=1;" parent="1" vertex="1">
          <mxGeometry x="21" y="21" width="1060" height="889" as="geometry" />
        </mxCell>
        <mxCell id="677b7b8949515195-16" value="" style="verticalLabelPosition=bottom;shadow=0;dashed=0;align=center;html=1;verticalAlign=top;strokeWidth=1;shape=mxgraph.mockup.graphics.simpleIcon;strokeColor=#999999;rounded=0;labelBackgroundColor=none;fontFamily=Verdana;fontSize=14;fontColor=#000000;comic=1;" parent="1" vertex="1">
          <mxGeometry x="365" y="130" width="370" height="259" as="geometry" />
        </mxCell>
        <mxCell id="677b7b8949515195-36" value="&lt;u&gt;es&lt;/u&gt;" style="text;html=1;points=[];align=left;verticalAlign=top;spacingTop=-4;fontSize=14;fontFamily=Verdana" parent="1" vertex="1">
          <mxGeometry x="530" y="425" width="20" height="20" as="geometry" />
        </mxCell>
        <mxCell id="677b7b8949515195-37" value="&lt;font style=&quot;font-size: 24px;&quot;&gt;Angelita&lt;/font&gt;" style="text;html=1;points=[];align=left;verticalAlign=top;spacingTop=-4;fontSize=14;fontFamily=Verdana" parent="1" vertex="1">
          <mxGeometry x="562" y="420.5" width="100" height="35" as="geometry" />
        </mxCell>
        <mxCell id="677b7b8949515195-38" value="Learn More About the Artist" style="text;html=1;points=[];align=left;verticalAlign=top;spacingTop=-4;fontSize=28;fontFamily=Verdana" parent="1" vertex="1">
          <mxGeometry x="345" y="530" width="395" height="30" as="geometry" />
        </mxCell>
        <mxCell id="677b7b8949515195-41" value="Copyright&amp;nbsp;&lt;span style=&quot;background: linear-gradient(90deg, rgb(58, 63, 80) 50%, rgba(0, 0, 0, 0) 50%) 0% 0px / 200% 100% no-repeat rgb(31, 31, 31); color: rgb(226, 238, 255); animation: 0.75s cubic-bezier(0.05, 0.7, 0.1, 1) 0.25s 1 normal forwards running highlight; font-family: &amp;quot;Google Sans&amp;quot;, Roboto, Arial, sans-serif; font-size: 20px; text-wrap: wrap;&quot;&gt;Â©&lt;/span&gt;&amp;nbsp;2024" style="text;html=1;points=[];align=left;verticalAlign=top;spacingTop=-4;fontSize=14;fontFamily=Verdana" parent="1" vertex="1">
          <mxGeometry x="483.5" y="836" width="135" height="20" as="geometry" />
        </mxCell>
        <mxCell id="677b7b8949515195-42" value="&lt;font style=&quot;font-size: 24px;&quot;&gt;Ella&lt;/font&gt;" style="text;html=1;points=[];align=left;verticalAlign=top;spacingTop=-4;fontSize=14;fontFamily=Verdana" parent="1" vertex="1">
          <mxGeometry x="469" y="420.5" width="50" height="30" as="geometry" />
        </mxCell>
        <mxCell id="U0OjibZBVZgMmUyrxd21-4" value="Instagram" style="verticalLabelPosition=bottom;shadow=0;dashed=0;align=center;html=1;verticalAlign=top;strokeWidth=1;shape=mxgraph.mockup.graphics.simpleIcon;strokeColor=#999999;rounded=0;labelBackgroundColor=none;fontFamily=Verdana;fontSize=14;fontColor=#000000;comic=1;" vertex="1" parent="1">
          <mxGeometry x="250" y="620" width="150" height="139" as="geometry" />
        </mxCell>
        <mxCell id="U0OjibZBVZgMmUyrxd21-5" value="Facebook" style="verticalLabelPosition=bottom;shadow=0;dashed=0;align=center;html=1;verticalAlign=top;strokeWidth=1;shape=mxgraph.mockup.graphics.simpleIcon;strokeColor=#999999;rounded=0;labelBackgroundColor=none;fontFamily=Verdana;fontSize=14;fontColor=#000000;comic=1;" vertex="1" parent="1">
          <mxGeometry x="475" y="620" width="150" height="139" as="geometry" />
        </mxCell>
        <mxCell id="U0OjibZBVZgMmUyrxd21-6" value="Twitter" style="verticalLabelPosition=bottom;shadow=0;dashed=0;align=center;html=1;verticalAlign=top;strokeWidth=1;shape=mxgraph.mockup.graphics.simpleIcon;strokeColor=#999999;rounded=0;labelBackgroundColor=none;fontFamily=Verdana;fontSize=14;fontColor=#000000;comic=1;" vertex="1" parent="1">
          <mxGeometry x="700" y="620" width="150" height="139" as="geometry" />
        </mxCell>
      </root>
    </mxGraphModel>
  </diagram>
</mxfile>
